<svg height="512pt" viewBox="0 -9 512 512" width="512pt" xmlns="http://www.w3.org/2000/svg"><path d="m344.277344 450.207031c-14.636719 0-26.484375-11.847656-26.484375-26.484375v-35.308594h-123.585938v35.308594c0 14.636719-11.847656 26.484375-26.484375 26.484375h-52.964844v35.308594h282.484376v-35.308594zm0 0" fill="#afb6bb"/><path d="m344.277344 88.277344c-24.402344 0-44.140625-19.738282-44.140625-44.140625v-35.308594h-70.621094v35.308594c0 24.402343-19.738281 44.140625-44.136719 44.140625-78.070312 0-141.242187 63.167968-141.242187 141.238281v123.585937h441.378906v-123.585937c0-78.070313-63.167969-141.238281-141.238281-141.238281zm0 0" fill="#c6e2f7"/><path d="m317.792969 17.65625h-105.929688c-4.875 0-8.828125-3.945312-8.828125-8.828125s3.953125-8.828125 8.828125-8.828125h105.929688c4.871093 0 8.828125 3.945312 8.828125 8.828125s-3.957032 8.828125-8.828125 8.828125zm0 0" fill="#7c9fb5"/><path d="m414.898438 494.34375h-317.796876c-4.871093 0-8.824218-3.945312-8.824218-8.828125 0-4.878906 3.953125-8.824219 8.824218-8.824219h317.796876c4.871093 0 8.824218 3.945313 8.824218 8.824219 0 4.882813-3.953125 8.828125-8.824218 8.828125zm0 0" fill="#7383bf"/><path d="m264.828125 353.101562c-4.875 0-8.828125-3.945312-8.828125-8.824218v-203.035156c0-4.882813 3.953125-8.828126 8.828125-8.828126 4.871094 0 8.828125 3.945313 8.828125 8.828126v203.035156c0 4.878906-3.957031 8.824218-8.828125 8.824218zm0 0" fill="#be6e41"/><path d="m220.691406 282.484375s-56.304687 27.417969-95.277344-18.046875c0 0-19.484374-24.757812-19.484374-70.230469 0 0 29.316406 17.65625 61.792968 17.65625 0 0 52.96875-.820312 52.96875 70.621094zm0 0" fill="#61b872"/><g fill="#be6e41"><path d="m264.828125 308.964844c-1.09375 0-2.199219-.195313-3.277344-.625l-44.136719-17.65625c-4.527343-1.808594-6.726562-6.949219-4.917968-11.476563 1.8125-4.535156 6.957031-6.734375 11.476562-4.925781l44.140625 17.65625c4.527344 1.808594 6.726563 6.945312 4.914063 11.476562-1.386719 3.460938-4.703125 5.550782-8.199219 5.550782zm0 0"/><path d="m264.835938 273.65625c-2.683594 0-5.332032-1.21875-7.070313-3.53125-2.921875-3.894531-2.136719-9.429688 1.765625-12.351562l35.308594-26.480469c3.902344-2.914063 9.4375-2.148438 12.359375 1.765625 2.921875 3.890625 2.136719 9.425781-1.765625 12.347656l-35.308594 26.484375c-1.589844 1.191406-3.453125 1.765625-5.289062 1.765625zm0 0"/><path d="m264.828125 150.070312c-2.261719 0-4.519531-.867187-6.242187-2.585937l-26.480469-26.484375c-3.453125-3.453125-3.453125-9.03125 0-12.484375 3.441406-3.449219 9.039062-3.449219 12.480469 0l26.484374 26.484375c3.449219 3.453125 3.449219 9.03125 0 12.484375-1.722656 1.71875-3.984374 2.585937-6.242187 2.585937zm0 0"/><path d="m264.828125 150.070312c-2.261719 0-4.519531-.867187-6.242187-2.585937-3.449219-3.453125-3.449219-9.03125 0-12.484375l26.484374-26.484375c3.441407-3.449219 9.039063-3.449219 12.480469 0 3.453125 3.453125 3.453125 9.03125 0 12.484375l-26.480469 26.484375c-1.722656 1.71875-3.984374 2.585937-6.242187 2.585937zm0 0"/><path d="m220.679688 291.308594c-1.480469 0-2.992188-.367188-4.367188-1.164063l-61.792969-35.308593c-4.230469-2.421876-5.703125-7.8125-3.285156-12.042969 2.417969-4.226563 7.8125-5.710938 12.039063-3.28125l61.792968 35.308593c4.230469 2.417969 5.703125 7.8125 3.285156 12.039063-1.625 2.851563-4.609374 4.449219-7.671874 4.449219zm0 0"/></g><path d="m300.136719 238.980469s56.304687 27.417969 95.277343-18.042969c0 0 19.484376-24.761719 19.484376-70.234375 0 0-29.316407 17.65625-61.796876 17.65625 0 0-52.964843-.828125-52.964843 70.621094zm0 0" fill="#3d6f44"/><path d="m300.148438 247.800781c-3.066407 0-6.046876-1.597656-7.671876-4.449219-2.417968-4.230468-.945312-9.625 3.28125-12.042968l61.792969-35.308594c4.238281-2.417969 9.632813-.945312 12.042969 3.28125 2.417969 4.230469.945312 9.625-3.285156 12.042969l-61.792969 35.308593c-1.375.796876-2.886719 1.167969-4.367187 1.167969zm0 0" fill="#be6e41"/><path d="m459.035156 397.242188h-406.070312c-29.253906 0-52.964844-23.710938-52.964844-52.964844h512c0 29.253906-23.710938 52.964844-52.964844 52.964844zm0 0" fill="#e7eced"/></svg>